<svg width="24" height="25" viewBox="0 0 24 25" fill="none" xmlns="http://www.w3.org/2000/svg">
<path d="M17 11.5H13V7.5C13 7.23478 12.8946 6.98043 12.7071 6.79289C12.5196 6.60536 12.2652 6.5 12 6.5C11.7348 6.5 11.4804 6.60536 11.2929 6.79289C11.1054 6.98043 11 7.23478 11 7.5V11.5H7C6.73478 11.5 6.48043 11.6054 6.29289 11.7929C6.10536 11.9804 6 12.2348 6 12.5C6 12.7652 6.10536 13.0196 6.29289 13.2071C6.48043 13.3946 6.73478 13.5 7 13.5H11V17.5C11 17.7652 11.1054 18.0196 11.2929 18.2071C11.4804 18.3946 11.7348 18.5 12 18.5C12.2652 18.5 12.5196 18.3946 12.7071 18.2071C12.8946 18.0196 13 17.7652 13 17.5V13.5H17C17.2652 13.5 17.5196 13.3946 17.7071 13.2071C17.8946 13.0196 18 12.7652 18 12.5C18 12.2348 17.8946 11.9804 17.7071 11.7929C17.5196 11.6054 17.2652 11.5 17 11.5Z" fill="#768DA1"/>
<path d="M21 2.5H3C2.86867 2.49997 2.73862 2.52581 2.61728 2.57605C2.49594 2.62629 2.38568 2.69995 2.29282 2.79282C2.19995 2.88568 2.12629 2.99594 2.07605 3.11728C2.02581 3.23862 1.99997 3.36867 2 3.5V21.5C1.99997 21.6313 2.02581 21.7614 2.07605 21.8827C2.12629 22.0041 2.19995 22.1143 2.29282 22.2072C2.38568 22.3 2.49594 22.3737 2.61728 22.4239C2.73862 22.4742 2.86867 22.5 3 22.5H21C21.1313 22.5 21.2614 22.4742 21.3827 22.4239C21.5041 22.3737 21.6143 22.3 21.7072 22.2072C21.8 22.1143 21.8737 22.0041 21.9239 21.8827C21.9742 21.7614 22 21.6313 22 21.5V3.5C22 3.36867 21.9742 3.23862 21.9239 3.11728C21.8737 2.99594 21.8 2.88568 21.7072 2.79282C21.6143 2.69995 21.5041 2.62629 21.3827 2.57605C21.2614 2.52581 21.1313 2.49997 21 2.5ZM17 13.5H13V17.5C13 17.7652 12.8946 18.0196 12.7071 18.2071C12.5196 18.3946 12.2652 18.5 12 18.5C11.7348 18.5 11.4804 18.3946 11.2929 18.2071C11.1054 18.0196 11 17.7652 11 17.5V13.5H7C6.73478 13.5 6.48043 13.3946 6.29289 13.2071C6.10536 13.0196 6 12.7652 6 12.5C6 12.2348 6.10536 11.9804 6.29289 11.7929C6.48043 11.6054 6.73478 11.5 7 11.5H11V7.5C11 7.23478 11.1054 6.98043 11.2929 6.79289C11.4804 6.60536 11.7348 6.5 12 6.5C12.2652 6.5 12.5196 6.60536 12.7071 6.79289C12.8946 6.98043 13 7.23478 13 7.5V11.5H17C17.2652 11.5 17.5196 11.6054 17.7071 11.7929C17.8946 11.9804 18 12.2348 18 12.5C18 12.7652 17.8946 13.0196 17.7071 13.2071C17.5196 13.3946 17.2652 13.5 17 13.5Z" fill="#AEC3D6"/>
</svg>
