<svg xmlns="http://www.w3.org/2000/svg" width="24" height="25" fill="none" viewBox="0 0 24 25"><path fill="#AEC3D6" d="M8.85431 22.0708C10.8951 22.7539 13.1028 22.7541 15.1438 22.0715C14.8845 22.1547 14.6069 22.0121 14.5236 21.7528C14.5073 21.7021 14.4993 21.649 14.5 21.5957C14.5 21.2583 14.5125 20.1833 14.5125 18.8457C14.5667 18.1603 14.3204 17.4852 13.8375 16.9957C16.0625 16.7457 18.4 15.8957 18.4 12.0582C18.4164 11.064 18.0493 10.1016 17.375 9.37075C17.6807 8.50697 17.645 7.55903 17.275 6.72075C17.275 6.72075 16.4375 6.44575 14.525 7.74575C12.8887 7.29571 11.1613 7.29571 9.52501 7.74575C7.61248 6.45827 6.77501 6.72075 6.77501 6.72075C6.40503 7.55903 6.36926 8.50697 6.67501 9.37075C6.00268 10.1028 5.63594 11.0644 5.65001 12.0582C5.65001 15.8832 7.97502 16.7457 10.2 16.9957C9.83232 17.3495 9.60576 17.8249 9.5625 18.3333C8.53268 18.9104 7.23001 18.5433 6.65292 17.5135C6.65195 17.5118 6.65097 17.51 6.65 17.5083C6.33536 16.9363 5.76149 16.5537 5.11247 16.4833C4.275 16.4958 4.775 16.9583 5.12498 17.1458C5.57623 17.5265 5.92803 18.0112 6.15 18.5583C6.35 19.1208 7.00001 20.1958 9.5125 19.7333C9.5125 20.5708 9.525 21.3583 9.525 21.5958C9.525 21.8548 9.3396 22.147 8.85431 22.0708Z"/><path fill="#768DA1" d="M12 2.58301C6.47717 2.58301 2 7.06018 2 12.583C2 17.006 4.87469 20.7517 8.85516 22.0708C9.33978 22.1464 9.52502 21.8546 9.52502 21.5958C9.52502 21.3583 9.51251 20.5708 9.51251 19.7333C7 20.1958 6.34998 19.1208 6.15002 18.5583C5.92804 18.0112 5.57623 17.5265 5.125 17.1458C4.77502 16.9583 4.27502 16.4958 5.11249 16.4833C5.76148 16.5537 6.33539 16.9363 6.65003 17.5083C6.65101 17.5101 6.65198 17.5118 6.65296 17.5135C7.23005 18.5433 8.53266 18.9103 9.56251 18.3332C9.60578 17.8249 9.83235 17.3495 10.2 16.9958C7.97504 16.7458 5.65003 15.8832 5.65003 12.0583C5.63593 11.0644 6.00269 10.1028 6.67499 9.37078C6.36926 8.50696 6.40503 7.55902 6.77502 6.72076C6.77502 6.72076 7.61248 6.45825 9.52502 7.74578C11.1613 7.29571 12.8887 7.29571 14.525 7.74578C16.4375 6.44573 17.275 6.72076 17.275 6.72076C17.645 7.55902 17.6807 8.50695 17.375 9.37078C18.0493 10.1016 18.4164 11.064 18.4 12.0583C18.4 15.8957 16.0625 16.7458 13.8375 16.9958C14.3204 17.4852 14.5668 18.1603 14.5125 18.8458C14.5125 20.1833 14.5 21.2583 14.5 21.5958C14.4993 21.649 14.5073 21.7021 14.5236 21.7528C14.6067 22.0116 14.8837 22.154 15.1426 22.0716C19.1243 20.7532 22 17.0068 22 12.583C22 7.06018 17.5228 2.58301 12 2.58301Z"/></svg>