<svg width="24" height="25" viewBox="0 0 24 25" fill="none" xmlns="http://www.w3.org/2000/svg">
<path d="M13.5 6.9649C12.7 6.9649 12 7.6649 12 8.4649C12 9.2649 12.7 9.9649 13.5 9.9649C14.3 9.9649 15 9.2649 15 8.4649C15 7.6649 14.3 6.9649 13.5 6.9649ZM19 2.9649H5C3.3 2.9649 2 4.2649 2 5.9649V19.9649C2 21.6649 3.3 22.9649 5 22.9649H19C20.7 22.9649 22 21.6649 22 19.9649V5.9649C22 4.2649 20.7 2.9649 19 2.9649ZM20 14.8649L18.1 12.9649C16.9 11.8649 15 11.8649 13.9 12.9649L13 13.8649L10.1 10.9649C8.9 9.8649 7 9.8649 5.9 10.9649L4 12.8649V5.9649C4 5.3649 4.4 4.9649 5 4.9649H19C19.6 4.9649 20 5.3649 20 5.9649V14.8649Z" fill="#FFEFEF"/>
</svg>
