<svg width="310" height="311" viewBox="0 0 310 311" fill="none" xmlns="http://www.w3.org/2000/svg">
<g opacity="0.24" filter="url(#filter0_f_4_63)">
<circle cx="155" cy="155.465" r="65" fill="#7C99AC"/>
<circle cx="155" cy="155.465" r="65" fill="url(#paint0_radial_4_63)" fill-opacity="0.9"/>
<circle cx="155" cy="155.465" r="65" fill="url(#paint1_radial_4_63)" fill-opacity="0.85"/>
<circle cx="155" cy="155.465" r="65" fill="url(#paint2_radial_4_63)" fill-opacity="0.8"/>
<circle cx="155" cy="155.465" r="65" fill="url(#paint3_radial_4_63)" fill-opacity="0.88"/>
</g>
<g filter="url(#filter1_d_4_63)">
<path d="M210.551 144.613C210.551 175.327 185.652 200.225 154.938 200.225C124.224 200.225 99.3258 175.327 99.3258 144.613C99.3258 113.899 124.224 89 154.938 89C185.652 89 210.551 113.899 210.551 144.613Z" fill="#7C99AC"/>
<path d="M210.551 144.613C210.551 175.327 185.652 200.225 154.938 200.225C124.224 200.225 99.3258 175.327 99.3258 144.613C99.3258 113.899 124.224 89 154.938 89C185.652 89 210.551 113.899 210.551 144.613Z" fill="url(#paint4_radial_4_63)" fill-opacity="0.9"/>
<path d="M210.551 144.613C210.551 175.327 185.652 200.225 154.938 200.225C124.224 200.225 99.3258 175.327 99.3258 144.613C99.3258 113.899 124.224 89 154.938 89C185.652 89 210.551 113.899 210.551 144.613Z" fill="url(#paint5_radial_4_63)" fill-opacity="0.85"/>
<path d="M210.551 144.613C210.551 175.327 185.652 200.225 154.938 200.225C124.224 200.225 99.3258 175.327 99.3258 144.613C99.3258 113.899 124.224 89 154.938 89C185.652 89 210.551 113.899 210.551 144.613Z" fill="url(#paint6_radial_4_63)" fill-opacity="0.8"/>
<path d="M210.551 144.613C210.551 175.327 185.652 200.225 154.938 200.225C124.224 200.225 99.3258 175.327 99.3258 144.613C99.3258 113.899 124.224 89 154.938 89C185.652 89 210.551 113.899 210.551 144.613Z" fill="url(#paint7_radial_4_63)" fill-opacity="0.88"/>
</g>
<path d="M135.006 114.061C130.729 100.569 150.473 100.245 157.382 116.036C160.876 124.021 160.206 135.373 159.455 146.751C148.718 134.135 137.248 121.135 135.006 114.061Z" fill="url(#paint8_linear_4_63)"/>
<path d="M162.535 183.166C197.76 176.95 212.613 146.481 199.284 127.091C193.067 118.048 183.331 119.727 162.535 120.972C141.738 122.218 121.069 125.711 121.069 152.892C121.068 180.073 146.349 186.023 162.535 183.166Z" fill="url(#paint9_radial_4_63)"/>
<path d="M162.535 183.166C197.76 176.95 212.613 146.481 199.284 127.091C193.067 118.048 183.331 119.727 162.535 120.972C141.738 122.218 121.069 125.711 121.069 152.892C121.068 180.073 146.349 186.023 162.535 183.166Z" fill="url(#paint10_linear_4_63)"/>
<g style="mix-blend-mode:hard-light">
<path d="M131.269 151.246C131.269 133.065 136.888 116.106 139.715 108.077C140.878 104.774 145.232 103.833 148.134 105.794C153.076 108.774 163.033 116.013 173.083 122.954C183.527 130.166 198.588 138.14 191.676 161.784C186.439 179.699 160.886 178.888 160.886 178.888C160.886 178.888 131.27 178.395 131.269 151.246Z" fill="url(#paint11_linear_4_63)"/>
</g>
<path d="M188.42 178.059C202.899 165.39 207.926 138.908 198.218 122.455C188.51 106.002 174.68 102.171 163.172 102.71C151.665 103.25 128.291 110.445 127.304 136.275C126.316 162.106 139.75 173.062 153.801 185.406C159.231 190.176 173.941 190.727 188.42 178.059Z" fill="url(#paint12_linear_4_63)"/>
<path d="M138.117 170.215C138.945 170.704 139.684 171.181 140.237 171.676C147.444 178.13 158.492 177.445 170.192 174.385C182.533 171.158 202.55 165.342 205.8 149.94C207.641 141.215 200.96 129.494 191.998 119.984C183.835 111.322 173.876 104.493 164.854 103.435C162.594 103.17 159.836 103.145 156.876 103.53C139.738 107.066 130.487 116.647 129.074 136.147C127.661 155.646 129.256 159.41 138.117 170.215Z" fill="url(#paint13_linear_4_63)" fill-opacity="0.78"/>
<g style="mix-blend-mode:color-dodge">
<path d="M117.063 149.657C114.379 131.006 122.289 110.898 140.378 110.898C154.66 110.898 162.73 121.816 173.702 128.988C187.176 137.795 197.504 143.869 197.504 152.79C197.504 168.976 173.373 177.572 150.355 168.358C133.561 161.635 119.748 168.309 117.063 149.657Z" fill="url(#paint14_radial_4_63)" fill-opacity="0.8"/>
</g>
<path d="M117.063 149.657C114.379 131.006 122.289 110.898 140.378 110.898C154.66 110.898 162.73 121.816 173.702 128.988C187.176 137.795 197.504 143.869 197.504 152.79C197.504 168.976 173.373 177.572 150.355 168.358C133.561 161.635 119.748 168.309 117.063 149.657Z" fill="url(#paint15_linear_4_63)"/>
<path d="M160.838 177.078C166.762 193.367 181.735 188.264 179.43 175.432C178.334 169.328 169.196 158.197 159.455 146.751C158.721 157.875 157.91 169.025 160.838 177.078Z" fill="url(#paint16_radial_4_63)"/>
<path d="M160.838 177.078C166.762 193.367 181.735 188.264 179.43 175.432C178.334 169.328 169.196 158.197 159.455 146.751C158.721 157.875 157.91 169.025 160.838 177.078Z" fill="url(#paint17_linear_4_63)"/>
<g filter="url(#filter2_df_4_63)">
<path d="M168.941 143.56C168.941 151.293 162.671 157.563 154.938 157.563C147.204 157.563 140.934 151.293 140.934 143.56C140.934 140.586 141.861 137.829 143.442 135.561C145.041 133.268 146.126 132.97 144.298 130.854C141.925 128.105 139.838 124.695 151.471 122.858C162.323 121.143 167.781 120.5 164.855 130.514C164.186 132.8 164.925 133.46 166.315 135.395C167.968 137.693 168.941 140.513 168.941 143.56Z" fill="white"/>
</g>
<defs>
<filter id="filter0_f_4_63" x="0" y="0.46489" width="310" height="310" filterUnits="userSpaceOnUse" color-interpolation-filters="sRGB">
<feFlood flood-opacity="0" result="BackgroundImageFix"/>
<feBlend mode="normal" in="SourceGraphic" in2="BackgroundImageFix" result="shape"/>
<feGaussianBlur stdDeviation="45" result="effect1_foregroundBlur_4_63"/>
</filter>
<filter id="filter1_d_4_63" x="44.3258" y="53" width="221.225" height="221.225" filterUnits="userSpaceOnUse" color-interpolation-filters="sRGB">
<feFlood flood-opacity="0" result="BackgroundImageFix"/>
<feColorMatrix in="SourceAlpha" type="matrix" values="0 0 0 0 0 0 0 0 0 0 0 0 0 0 0 0 0 0 127 0" result="hardAlpha"/>
<feOffset dy="19"/>
<feGaussianBlur stdDeviation="27.5"/>
<feColorMatrix type="matrix" values="0 0 0 0 0.121569 0 0 0 0 0.145098 0 0 0 0 0.258824 0 0 0 0.45 0"/>
<feBlend mode="normal" in2="BackgroundImageFix" result="effect1_dropShadow_4_63"/>
<feBlend mode="normal" in="SourceGraphic" in2="effect1_dropShadow_4_63" result="shape"/>
</filter>
<filter id="filter2_df_4_63" x="80.9344" y="61.8546" width="168.006" height="175.708" filterUnits="userSpaceOnUse" color-interpolation-filters="sRGB">
<feFlood flood-opacity="0" result="BackgroundImageFix"/>
<feColorMatrix in="SourceAlpha" type="matrix" values="0 0 0 0 0 0 0 0 0 0 0 0 0 0 0 0 0 0 127 0" result="hardAlpha"/>
<feOffset dx="10" dy="10"/>
<feGaussianBlur stdDeviation="35"/>
<feColorMatrix type="matrix" values="0 0 0 0 1 0 0 0 0 1 0 0 0 0 1 0 0 0 1 0"/>
<feBlend mode="normal" in2="BackgroundImageFix" result="effect1_dropShadow_4_63"/>
<feBlend mode="normal" in="SourceGraphic" in2="effect1_dropShadow_4_63" result="shape"/>
<feGaussianBlur stdDeviation="12.5" result="effect2_foregroundBlur_4_63"/>
</filter>
<radialGradient id="paint0_radial_4_63" cx="0" cy="0" r="1" gradientUnits="userSpaceOnUse" gradientTransform="translate(133.846 111.811) rotate(63.1327) scale(48.936 58.0511)">
<stop stop-color="#7D7194"/>
<stop offset="1" stop-color="#7D7194" stop-opacity="0"/>
</radialGradient>
<radialGradient id="paint1_radial_4_63" cx="0" cy="0" r="1" gradientUnits="userSpaceOnUse" gradientTransform="translate(216.539 134.504) rotate(161.19) scale(65.0108)">
<stop stop-color="#4A8F9F"/>
<stop offset="1" stop-color="#4A8F9F" stop-opacity="0"/>
</radialGradient>
<radialGradient id="paint2_radial_4_63" cx="0" cy="0" r="1" gradientUnits="userSpaceOnUse" gradientTransform="translate(176.539 217.004) rotate(-108.939) scale(41.4762)">
<stop stop-color="#2C3C47"/>
<stop offset="1" stop-color="#428A86"/>
</radialGradient>
<radialGradient id="paint3_radial_4_63" cx="0" cy="0" r="1" gradientUnits="userSpaceOnUse" gradientTransform="translate(84.2308 178.927) rotate(-18.3418) scale(74.557 103.636)">
<stop stop-color="#D3DEDC"/>
<stop offset="1" stop-color="#AEC3D6" stop-opacity="0.24"/>
</radialGradient>
<radialGradient id="paint4_radial_4_63" cx="0" cy="0" r="1" gradientUnits="userSpaceOnUse" gradientTransform="translate(136.84 107.264) rotate(63.1327) scale(41.8686 49.6673)">
<stop stop-color="#7D7194"/>
<stop offset="1" stop-color="#7D7194" stop-opacity="0"/>
</radialGradient>
<radialGradient id="paint5_radial_4_63" cx="0" cy="0" r="1" gradientUnits="userSpaceOnUse" gradientTransform="translate(207.59 126.679) rotate(161.19) scale(55.6219)">
<stop stop-color="#4A8F9F"/>
<stop offset="1" stop-color="#4A8F9F" stop-opacity="0"/>
</radialGradient>
<radialGradient id="paint6_radial_4_63" cx="0" cy="0" r="1" gradientUnits="userSpaceOnUse" gradientTransform="translate(173.367 197.264) rotate(-108.939) scale(35.4862)">
<stop stop-color="#2C3C47"/>
<stop offset="1" stop-color="#428A86"/>
</radialGradient>
<radialGradient id="paint7_radial_4_63" cx="0" cy="0" r="1" gradientUnits="userSpaceOnUse" gradientTransform="translate(94.3898 164.686) rotate(-18.3418) scale(63.7894 88.669)">
<stop stop-color="#D3DEDC"/>
<stop offset="1" stop-color="#AEC3D6" stop-opacity="0.24"/>
</radialGradient>
<linearGradient id="paint8_linear_4_63" x1="134.406" y1="113.403" x2="158.253" y2="109.455" gradientUnits="userSpaceOnUse">
<stop stop-color="#E375A0"/>
<stop offset="1" stop-color="#E375A0" stop-opacity="0"/>
</linearGradient>
<radialGradient id="paint9_radial_4_63" cx="0" cy="0" r="1" gradientUnits="userSpaceOnUse" gradientTransform="translate(141.142 129.528) rotate(69.3339) scale(40.0939 48.2929)">
<stop stop-color="#B850C1"/>
<stop offset="1" stop-color="#DCADE0" stop-opacity="0"/>
</radialGradient>
<linearGradient id="paint10_linear_4_63" x1="165.246" y1="119.918" x2="164.874" y2="132.397" gradientUnits="userSpaceOnUse">
<stop stop-color="#B850C1"/>
<stop offset="1" stop-color="#DCADE0" stop-opacity="0"/>
</linearGradient>
<linearGradient id="paint11_linear_4_63" x1="137.522" y1="159.802" x2="168.454" y2="147.956" gradientUnits="userSpaceOnUse">
<stop stop-color="#7EA1E4"/>
<stop offset="1" stop-color="#70CBFF" stop-opacity="0"/>
</linearGradient>
<linearGradient id="paint12_linear_4_63" x1="203.065" y1="141.374" x2="165.247" y2="158.418" gradientUnits="userSpaceOnUse">
<stop stop-color="#5BAEEC"/>
<stop offset="1" stop-color="#5BAEEC" stop-opacity="0"/>
</linearGradient>
<linearGradient id="paint13_linear_4_63" x1="140.661" y1="137.364" x2="190.822" y2="146.69" gradientUnits="userSpaceOnUse">
<stop stop-color="#85FAFE" stop-opacity="0"/>
<stop offset="1" stop-color="#85FAFE"/>
</linearGradient>
<radialGradient id="paint14_radial_4_63" cx="0" cy="0" r="1" gradientUnits="userSpaceOnUse" gradientTransform="translate(138.053 120.477) rotate(84.3771) scale(36.7049 40.995)">
<stop stop-color="#65ECE8"/>
<stop offset="1" stop-color="#8BECE9" stop-opacity="0"/>
</radialGradient>
<linearGradient id="paint15_linear_4_63" x1="182.381" y1="162.197" x2="193.184" y2="141.523" gradientUnits="userSpaceOnUse">
<stop stop-color="#7BE7F6" stop-opacity="0"/>
<stop offset="0.75" stop-color="#7BE7F6"/>
</linearGradient>
<radialGradient id="paint16_radial_4_63" cx="0" cy="0" r="1" gradientUnits="userSpaceOnUse" gradientTransform="translate(163.189 183.495) rotate(-68.2079) scale(23.0508 29.5946)">
<stop stop-color="#E375A0" stop-opacity="0"/>
<stop offset="1" stop-color="#FF91C6"/>
</radialGradient>
<linearGradient id="paint17_linear_4_63" x1="160.886" y1="151.576" x2="162.531" y2="162.764" gradientUnits="userSpaceOnUse">
<stop stop-color="white"/>
<stop offset="1" stop-color="white" stop-opacity="0"/>
</linearGradient>
</defs>
</svg>
