<svg width="24" height="25" viewBox="0 0 24 25" fill="none" xmlns="http://www.w3.org/2000/svg">
<path d="M16.5 11.5H12.5V7.5C12.5 7.23478 12.3946 6.98043 12.2071 6.79289C12.0196 6.60536 11.7652 6.5 11.5 6.5C11.2348 6.5 10.9804 6.60536 10.7929 6.79289C10.6054 6.98043 10.5 7.23478 10.5 7.5V11.5H6.5C6.23478 11.5 5.98043 11.6054 5.79289 11.7929C5.60536 11.9804 5.5 12.2348 5.5 12.5C5.5 12.7652 5.60536 13.0196 5.79289 13.2071C5.98043 13.3946 6.23478 13.5 6.5 13.5H10.5V17.5C10.5 17.7652 10.6054 18.0196 10.7929 18.2071C10.9804 18.3946 11.2348 18.5 11.5 18.5C11.7652 18.5 12.0196 18.3946 12.2071 18.2071C12.3946 18.0196 12.5 17.7652 12.5 17.5V13.5H16.5C16.7652 13.5 17.0196 13.3946 17.2071 13.2071C17.3946 13.0196 17.5 12.7652 17.5 12.5C17.5 12.2348 17.3946 11.9804 17.2071 11.7929C17.0196 11.6054 16.7652 11.5 16.5 11.5Z" fill="#768DA1"/>
</svg>
