<svg xmlns="http://www.w3.org/2000/svg" width="24" height="25" fill="none" viewBox="0 0 24 25"><path fill="#92A9BD" d="M11 10.5H16C16.5523 10.5 17 10.9477 17 11.5V16.5C17 17.0523 16.5523 17.5 16 17.5H11C10.4477 17.5 10 17.0523 10 16.5V11.5C10 10.9477 10.4477 10.5 11 10.5Z"/><path fill="#7C99AC" d="M10 11.5C10 10.9477 10.4477 10.5 11 10.5H14V8.5C14 7.94769 13.5523 7.5 13 7.5H8C7.44769 7.5 7 7.94769 7 8.5V13.5C7 14.0523 7.44769 14.5 8 14.5H10V11.5ZM4 22.5C2.89543 22.5 2 21.6046 2 20.5C2 19.3954 2.89543 18.5 4 18.5C5.10457 18.5 6 19.3954 6 20.5C5.99857 21.604 5.10398 22.4986 4 22.5ZM4 6.5C2.89543 6.5 2 5.60457 2 4.5C2 3.39543 2.89543 2.5 4 2.5C5.10457 2.5 6 3.39543 6 4.5C5.99857 5.60398 5.10398 6.49857 4 6.5ZM20 6.5C18.8954 6.5 18 5.60457 18 4.5C18 3.39543 18.8954 2.5 20 2.5C21.1046 2.5 22 3.39543 22 4.5C21.9986 5.60398 21.104 6.49857 20 6.5ZM20 22.5C18.8954 22.5 18 21.6046 18 20.5C18 19.3954 18.8954 18.5 20 18.5C21.1046 18.5 22 19.3954 22 20.5C21.9986 21.604 21.104 22.4986 20 22.5Z"/><path fill="#AEC3D6" d="M18.2783 5.5C17.9072 4.88497 17.9072 4.11503 18.2783 3.5H5.72168C6.09277 4.11503 6.09277 4.88497 5.72168 5.5H18.2783ZM20 18.5C20.3522 18.502 20.6974 18.5981 21 18.7783V6.22168C20.385 6.59277 19.615 6.59277 19 6.22168V18.7783C19.3026 18.5981 19.6478 18.502 20 18.5ZM4 18.5C4.35218 18.502 4.69742 18.5981 5 18.7783V6.22168C4.38497 6.59277 3.61503 6.59277 3 6.22168V18.7783C3.30258 18.5981 3.64782 18.502 4 18.5ZM18.2783 19.5H5.72168C6.09277 20.115 6.09277 20.885 5.72168 21.5H18.2783C17.9072 20.885 17.9072 20.115 18.2783 19.5Z"/></svg>